<svg width="1360" height="1560" viewBox="0 0 680 780" xmlns="http://www.w3.org/2000/svg" style="background:#fff;font-family:-apple-system,BlinkMacSystemFont,Segoe UI,sans-serif">
<defs><marker id="arrow" viewBox="0 0 10 10" refX="8" refY="5" markerWidth="6" markerHeight="6" orient="auto-start-reverse"><path d="M2 1L8 5L2 9" fill="none" stroke="context-stroke" stroke-width="1.5" stroke-linecap="round" stroke-linejoin="round"/></marker></defs>
<text x="340" y="18" text-anchor="middle" font-size="14" font-weight="500" fill="#2C2C2A">Datacore — complete data architecture</text>
<rect x="30" y="36" width="180" height="230" rx="10" fill="none" stroke="#D3D1C7" stroke-width="0.5" stroke-dasharray="4 3"/>
<text x="120" y="52" text-anchor="middle" font-size="14" font-weight="500" fill="#2C2C2A">Sources</text>
<rect x="42" y="64" width="156" height="30" rx="6" fill="#E6F1FB" stroke="#185FA5" stroke-width="0.5"/>
<text x="120" y="82" text-anchor="middle" dominant-baseline="central" font-size="12" fill="#185FA5">OpenClaw sessions</text>
<rect x="42" y="100" width="156" height="30" rx="6" fill="#E6F1FB" stroke="#185FA5" stroke-width="0.5"/>
<text x="120" y="118" text-anchor="middle" dominant-baseline="central" font-size="12" fill="#185FA5">Claude Desktop</text>
<rect x="42" y="136" width="156" height="30" rx="6" fill="#E6F1FB" stroke="#185FA5" stroke-width="0.5"/>
<text x="120" y="154" text-anchor="middle" dominant-baseline="central" font-size="12" fill="#185FA5">Codex sessions</text>
<rect x="42" y="172" width="156" height="30" rx="6" fill="#E6F1FB" stroke="#185FA5" stroke-width="0.5"/>
<text x="120" y="190" text-anchor="middle" dominant-baseline="central" font-size="12" fill="#185FA5">Gemini sessions</text>
<rect x="42" y="208" width="156" height="30" rx="6" fill="#F1EFE8" stroke="#5F5E5A" stroke-width="0.5"/>
<text x="120" y="226" text-anchor="middle" dominant-baseline="central" font-size="12" fill="#5F5E5A">Claude.ai transcripts</text>
<rect x="240" y="36" width="190" height="230" rx="10" fill="none" stroke="#D3D1C7" stroke-width="0.5" stroke-dasharray="4 3"/>
<text x="335" y="52" text-anchor="middle" font-size="14" font-weight="500" fill="#2C2C2A">Capture</text>
<rect x="252" y="64" width="166" height="30" rx="6" fill="#E1F5EE" stroke="#0F6E56" stroke-width="0.5"/>
<text x="335" y="82" text-anchor="middle" dominant-baseline="central" font-size="12" fill="#0F6E56">Gateway hook (100%)</text>
<rect x="252" y="100" width="166" height="30" rx="6" fill="#E1F5EE" stroke="#0F6E56" stroke-width="0.5"/>
<text x="335" y="118" text-anchor="middle" dominant-baseline="central" font-size="12" fill="#0F6E56">MCP log_event (~90%)</text>
<rect x="252" y="136" width="166" height="30" rx="6" fill="#E1F5EE" stroke="#0F6E56" stroke-width="0.5"/>
<text x="335" y="154" text-anchor="middle" dominant-baseline="central" font-size="12" fill="#0F6E56">File watcher (100%)</text>
<rect x="252" y="172" width="166" height="30" rx="6" fill="#E1F5EE" stroke="#0F6E56" stroke-width="0.5"/>
<text x="335" y="190" text-anchor="middle" dominant-baseline="central" font-size="12" fill="#0F6E56">File watcher (100%)</text>
<rect x="252" y="208" width="166" height="30" rx="6" fill="#F1EFE8" stroke="#5F5E5A" stroke-width="0.5"/>
<text x="335" y="226" text-anchor="middle" dominant-baseline="central" font-size="12" fill="#5F5E5A">Manual download</text>
<line x1="198" y1="79" x2="250" y2="79" stroke="#888780" stroke-width="1.5" marker-end="url(#arrow)"/>
<line x1="198" y1="115" x2="250" y2="115" stroke="#888780" stroke-width="1.5" marker-end="url(#arrow)"/>
<line x1="198" y1="151" x2="250" y2="151" stroke="#888780" stroke-width="1.5" marker-end="url(#arrow)"/>
<line x1="198" y1="187" x2="250" y2="187" stroke="#888780" stroke-width="1.5" marker-end="url(#arrow)"/>
<line x1="198" y1="223" x2="250" y2="223" stroke="#888780" stroke-width="1.5" marker-end="url(#arrow)"/>
<rect x="460" y="36" width="190" height="70" rx="10" fill="none" stroke="#D3D1C7" stroke-width="0.5" stroke-dasharray="4 3"/>
<text x="555" y="52" text-anchor="middle" font-size="14" font-weight="500" fill="#2C2C2A">Status</text>
<rect x="472" y="62" width="56" height="16" rx="8" fill="#E1F5EE" stroke="#0F6E56" stroke-width="0.5"/>
<text x="500" y="73" text-anchor="middle" dominant-baseline="central" font-size="12" fill="#0F6E56">BUILT</text>
<rect x="536" y="62" width="50" height="16" rx="8" fill="#FAEEDA" stroke="#854F0B" stroke-width="0.5"/>
<text x="561" y="73" text-anchor="middle" dominant-baseline="central" font-size="12" fill="#854F0B">NEXT</text>
<rect x="472" y="82" width="114" height="16" rx="8" fill="#FAECE7" stroke="#993C1D" stroke-width="0.5"/>
<text x="529" y="93" text-anchor="middle" dominant-baseline="central" font-size="12" fill="#993C1D">RESEARCH NEEDED</text>
<rect x="30" y="284" width="620" height="32" rx="8" fill="#F1EFE8" stroke="#D3D1C7" stroke-width="0.5"/>
<text x="340" y="304" text-anchor="middle" dominant-baseline="central" font-size="14" font-weight="500" fill="#2C2C2A">MCP (Model Context Protocol) — stdio transport</text>
<line x1="335" y1="266" x2="335" y2="282" stroke="#888780" stroke-width="1.5" marker-end="url(#arrow)"/>
<rect x="30" y="336" width="620" height="80" rx="12" fill="#E1F5EE" stroke="#0F6E56" stroke-width="0.5"/>
<text x="340" y="356" text-anchor="middle" font-size="14" font-weight="500" fill="#085041">Bronze — raw events</text>
<text x="340" y="374" text-anchor="middle" font-size="12" fill="#0F6E56">JSONL, append-only, full fidelity</text>
<text x="340" y="392" text-anchor="middle" font-size="12" fill="#0F6E56">20,900+ events  |  15 sources  |  ~/.datacore/bronze/</text>
<rect x="572" y="340" width="56" height="16" rx="8" fill="#E1F5EE" stroke="#0F6E56" stroke-width="0.5"/>
<text x="600" y="351" text-anchor="middle" dominant-baseline="central" font-size="12" fill="#0F6E56">BUILT</text>
<line x1="335" y1="316" x2="335" y2="334" stroke="#888780" stroke-width="1.5" marker-end="url(#arrow)"/>
<rect x="30" y="440" width="620" height="90" rx="12" fill="#FAEEDA" stroke="#854F0B" stroke-width="0.5"/>
<text x="340" y="460" text-anchor="middle" font-size="14" font-weight="500" fill="#633806">Silver — clean, searchable, entities</text>
<rect x="50" y="474" width="170" height="30" rx="6" fill="#fff" stroke="#D3D1C7" stroke-width="0.5"/>
<text x="135" y="492" text-anchor="middle" dominant-baseline="central" font-size="12" fill="#5F5E5A">Semantic search</text>
<rect x="240" y="474" width="180" height="30" rx="6" fill="#fff" stroke="#D3D1C7" stroke-width="0.5"/>
<text x="330" y="492" text-anchor="middle" dominant-baseline="central" font-size="12" fill="#5F5E5A">Entity extraction</text>
<rect x="440" y="474" width="190" height="30" rx="6" fill="#fff" stroke="#D3D1C7" stroke-width="0.5"/>
<text x="535" y="492" text-anchor="middle" dominant-baseline="central" font-size="12" fill="#5F5E5A">Dedup + normalize</text>
<rect x="580" y="444" width="50" height="16" rx="8" fill="#FAEEDA" stroke="#854F0B" stroke-width="0.5"/>
<text x="605" y="455" text-anchor="middle" dominant-baseline="central" font-size="12" fill="#854F0B">NEXT</text>
<rect x="50" y="508" width="170" height="16" rx="8" fill="#FAECE7" stroke="#993C1D" stroke-width="0.5"/>
<text x="135" y="519" text-anchor="middle" dominant-baseline="central" font-size="12" fill="#993C1D">Research: embeddings</text>
<rect x="240" y="508" width="180" height="16" rx="8" fill="#FAECE7" stroke="#993C1D" stroke-width="0.5"/>
<text x="330" y="519" text-anchor="middle" dominant-baseline="central" font-size="12" fill="#993C1D">Research: entity types</text>
<line x1="335" y1="416" x2="335" y2="438" stroke="#888780" stroke-width="1.5" marker-end="url(#arrow)"/>
<rect x="30" y="548" width="620" height="80" rx="12" fill="#FAEEDA" stroke="#854F0B" stroke-width="0.5"/>
<text x="340" y="568" text-anchor="middle" font-size="14" font-weight="500" fill="#633806">Gold — curated facts, instant answers</text>
<rect x="50" y="582" width="170" height="30" rx="6" fill="#fff" stroke="#D3D1C7" stroke-width="0.5"/>
<text x="135" y="600" text-anchor="middle" dominant-baseline="central" font-size="12" fill="#5F5E5A">Curated facts</text>
<rect x="240" y="582" width="180" height="30" rx="6" fill="#fff" stroke="#D3D1C7" stroke-width="0.5"/>
<text x="330" y="600" text-anchor="middle" dominant-baseline="central" font-size="12" fill="#5F5E5A">Knowledge graph</text>
<rect x="440" y="582" width="190" height="30" rx="6" fill="#fff" stroke="#D3D1C7" stroke-width="0.5"/>
<text x="535" y="600" text-anchor="middle" dominant-baseline="central" font-size="12" fill="#5F5E5A">Layered search</text>
<rect x="580" y="552" width="50" height="16" rx="8" fill="#FAEEDA" stroke="#854F0B" stroke-width="0.5"/>
<text x="605" y="563" text-anchor="middle" dominant-baseline="central" font-size="12" fill="#854F0B">NEXT</text>
<rect x="50" y="616" width="170" height="16" rx="8" fill="#FAECE7" stroke="#993C1D" stroke-width="0.5"/>
<text x="135" y="627" text-anchor="middle" dominant-baseline="central" font-size="12" fill="#993C1D">Research: fact curation</text>
<rect x="240" y="616" width="180" height="16" rx="8" fill="#FAECE7" stroke="#993C1D" stroke-width="0.5"/>
<text x="330" y="627" text-anchor="middle" dominant-baseline="central" font-size="12" fill="#993C1D">Research: graph DB</text>
<rect x="440" y="616" width="190" height="16" rx="8" fill="#FAECE7" stroke="#993C1D" stroke-width="0.5"/>
<text x="535" y="627" text-anchor="middle" dominant-baseline="central" font-size="12" fill="#993C1D">Research: query routing</text>
<line x1="335" y1="530" x2="335" y2="546" stroke="#888780" stroke-width="1.5" marker-end="url(#arrow)"/>
<rect x="30" y="656" width="620" height="60" rx="12" fill="none" stroke="#D3D1C7" stroke-width="0.5" stroke-dasharray="4 3"/>
<text x="340" y="676" text-anchor="middle" font-size="14" font-weight="500" fill="#2C2C2A">Azure (Phase 2+)</text>
<text x="340" y="696" text-anchor="middle" font-size="12" fill="#5F5E5A">ADLS Gen2  |  Databricks  |  Auto Loader  |  Vector Search</text>
<rect x="580" y="660" width="50" height="16" rx="8" fill="#FAEEDA" stroke="#854F0B" stroke-width="0.5"/>
<text x="605" y="671" text-anchor="middle" dominant-baseline="central" font-size="12" fill="#854F0B">NEXT</text>
<line x1="335" y1="632" x2="335" y2="654" stroke="#D3D1C7" stroke-width="0.5" stroke-dasharray="4 3" marker-end="url(#arrow)"/>
<rect x="460" y="120" width="190" height="146" rx="10" fill="none" stroke="#D3D1C7" stroke-width="0.5" stroke-dasharray="4 3"/>
<text x="555" y="136" text-anchor="middle" font-size="14" font-weight="500" fill="#2C2C2A">Consumers (read)</text>
<rect x="472" y="148" width="166" height="26" rx="6" fill="#EEEDFE" stroke="#534AB7" stroke-width="0.5"/>
<text x="555" y="164" text-anchor="middle" dominant-baseline="central" font-size="12" fill="#534AB7">search(query)</text>
<rect x="472" y="180" width="166" height="26" rx="6" fill="#EEEDFE" stroke="#534AB7" stroke-width="0.5"/>
<text x="555" y="196" text-anchor="middle" dominant-baseline="central" font-size="12" fill="#534AB7">get_tasks(status)</text>
<rect x="472" y="212" width="166" height="26" rx="6" fill="#F1EFE8" stroke="#5F5E5A" stroke-width="0.5"/>
<text x="555" y="228" text-anchor="middle" dominant-baseline="central" font-size="12" fill="#5F5E5A">add_entity (future)</text>
<rect x="472" y="244" width="166" height="26" rx="6" fill="#F1EFE8" stroke="#5F5E5A" stroke-width="0.5"/>
<text x="555" y="260" text-anchor="middle" dominant-baseline="central" font-size="12" fill="#5F5E5A">add_fact (future)</text>
<path d="M 555 148 L 555 130 L 440 130 L 440 304 L 430 304" fill="none" stroke="#888780" stroke-width="1.5" marker-end="url(#arrow)"/>
<text x="340" y="740" text-anchor="middle" font-size="12" fill="#5F5E5A">Local: MacBook Pro M1 Max  |  Protocol: MCP (stdio)  |  Pattern: Medallion</text>
<text x="340" y="760" text-anchor="middle" font-size="12" fill="#5F5E5A">5 research areas identified — design before implementation</text>
</svg>
