<svg width="1360" height="880" viewBox="0 0 680 440" xmlns="http://www.w3.org/2000/svg" style="background:#fff;font-family:-apple-system,BlinkMacSystemFont,Segoe UI,sans-serif">
<defs><marker id="arrow" viewBox="0 0 10 10" refX="8" refY="5" markerWidth="6" markerHeight="6" orient="auto-start-reverse"><path d="M2 1L8 5L2 9" fill="none" stroke="context-stroke" stroke-width="1.5" stroke-linecap="round" stroke-linejoin="round"/></marker></defs>
<rect x="250" y="30" width="180" height="50" rx="8" fill="#F1EFE8" stroke="#5F5E5A" stroke-width="0.5"/>
<text x="340" y="50" text-anchor="middle" dominant-baseline="central" font-size="14" font-weight="500" fill="#2C2C2A">David</text>
<text x="340" y="66" text-anchor="middle" dominant-baseline="central" font-size="12" fill="#5F5E5A">Human</text>
<line x1="310" y1="80" x2="310" y2="108" stroke="#888780" stroke-width="1.5" marker-end="url(#arrow)"/>
<line x1="370" y1="108" x2="370" y2="80" stroke="#888780" stroke-width="1.5" marker-end="url(#arrow)"/>
<text x="286" y="98" text-anchor="end" font-size="12" fill="#5F5E5A">request</text>
<text x="394" y="98" text-anchor="start" font-size="12" fill="#5F5E5A">result</text>
<rect x="200" y="110" width="280" height="56" rx="8" fill="#FBEAF0" stroke="#993556" stroke-width="0.5"/>
<text x="340" y="130" text-anchor="middle" dominant-baseline="central" font-size="14" font-weight="500" fill="#72243E">OpenClaw</text>
<text x="340" y="148" text-anchor="middle" dominant-baseline="central" font-size="12" fill="#993556">Manager - Copilot Sonnet 4.6</text>
<line x1="310" y1="166" x2="310" y2="208" stroke="#888780" stroke-width="1.5" marker-end="url(#arrow)"/>
<line x1="370" y1="208" x2="370" y2="166" stroke="#888780" stroke-width="1.5" marker-end="url(#arrow)"/>
<rect x="270" y="174" width="40" height="18" rx="9" fill="#F1EFE8" stroke="#B4B2A9" stroke-width="0.5"/>
<text x="290" y="186" text-anchor="middle" dominant-baseline="central" font-size="12" fill="#5F5E5A">MCP</text>
<rect x="370" y="174" width="40" height="18" rx="9" fill="#F1EFE8" stroke="#B4B2A9" stroke-width="0.5"/>
<text x="390" y="186" text-anchor="middle" dominant-baseline="central" font-size="12" fill="#5F5E5A">MCP</text>
<rect x="80" y="210" width="520" height="90" rx="14" fill="#FAEEDA" stroke="#854F0B" stroke-width="1"/>
<text x="340" y="244" text-anchor="middle" dominant-baseline="central" font-size="16" font-weight="500" fill="#633806">Datacore Bronze</text>
<text x="340" y="268" text-anchor="middle" dominant-baseline="central" font-size="12" fill="#854F0B">Shared memory - 20,000+ events - append-only</text>
<line x1="152" y1="300" x2="110" y2="340" stroke="#888780" stroke-width="1.5" marker-end="url(#arrow)"/>
<line x1="128" y1="340" x2="170" y2="300" stroke="#888780" stroke-width="1.5" marker-end="url(#arrow)"/>
<rect x="102" y="310" width="40" height="18" rx="9" fill="#F1EFE8" stroke="#B4B2A9" stroke-width="0.5"/>
<text x="122" y="322" text-anchor="middle" dominant-baseline="central" font-size="12" fill="#5F5E5A">MCP</text>
<line x1="326" y1="300" x2="326" y2="340" stroke="#888780" stroke-width="1.5" marker-end="url(#arrow)"/>
<line x1="354" y1="340" x2="354" y2="300" stroke="#888780" stroke-width="1.5" marker-end="url(#arrow)"/>
<rect x="320" y="310" width="40" height="18" rx="9" fill="#F1EFE8" stroke="#B4B2A9" stroke-width="0.5"/>
<text x="340" y="322" text-anchor="middle" dominant-baseline="central" font-size="12" fill="#5F5E5A">MCP</text>
<line x1="528" y1="300" x2="572" y2="340" stroke="#888780" stroke-width="1.5" marker-end="url(#arrow)"/>
<line x1="552" y1="340" x2="510" y2="300" stroke="#888780" stroke-width="1.5" marker-end="url(#arrow)"/>
<rect x="538" y="310" width="40" height="18" rx="9" fill="#F1EFE8" stroke="#B4B2A9" stroke-width="0.5"/>
<text x="558" y="322" text-anchor="middle" dominant-baseline="central" font-size="12" fill="#5F5E5A">MCP</text>
<rect x="20" y="342" width="180" height="56" rx="8" fill="#E6F1FB" stroke="#185FA5" stroke-width="0.5"/>
<text x="110" y="362" text-anchor="middle" dominant-baseline="central" font-size="14" font-weight="500" fill="#0C447C">Claude Desktop</text>
<text x="110" y="380" text-anchor="middle" dominant-baseline="central" font-size="12" fill="#185FA5">Anthropic</text>
<rect x="250" y="342" width="180" height="56" rx="8" fill="#FAECE7" stroke="#993C1D" stroke-width="0.5"/>
<text x="340" y="362" text-anchor="middle" dominant-baseline="central" font-size="14" font-weight="500" fill="#712B13">Codex</text>
<text x="340" y="380" text-anchor="middle" dominant-baseline="central" font-size="12" fill="#993C1D">OpenAI</text>
<rect x="480" y="342" width="180" height="56" rx="8" fill="#E1F5EE" stroke="#0F6E56" stroke-width="0.5"/>
<text x="570" y="362" text-anchor="middle" dominant-baseline="central" font-size="14" font-weight="500" fill="#085041">Antigravity</text>
<text x="570" y="380" text-anchor="middle" dominant-baseline="central" font-size="12" fill="#0F6E56">Google Gemini</text>
<text x="110" y="418" text-anchor="middle" font-size="12" fill="#5F5E5A">Tech Lead</text>
<text x="340" y="418" text-anchor="middle" font-size="12" fill="#5F5E5A">Builder</text>
<text x="570" y="418" text-anchor="middle" font-size="12" fill="#5F5E5A">Builder</text>
</svg>
